<svg id="Layer_1" data-name="Layer 1" xmlns="http://www.w3.org/2000/svg" viewBox="0 0 100 100"><title>pinterest_icon</title><path d="M53.40791,17.77505c-18.26794,0-27.47943,13.09705-27.47943,24.01944,0,6.61287,2.50343,12.4956,7.87346,14.6872a1.32325,1.32325,0,0,0,1.925-.96127c.17722-.67365.59809-2.37541.78593-3.08712a1.865,1.865,0,0,0-.55358-2.14159,11.08634,11.08634,0,0,1-2.5381-7.54119c0-9.71572,7.27064-18.41383,18.93042-18.41383,10.32565,0,15.9989,6.30952,15.9989,14.73305,0,11.08671-4.90709,20.44516-12.19025,20.44516a5.95157,5.95157,0,0,1-6.06856-7.40727C51.24791,47.2374,53.486,41.981,53.486,38.46318c0-3.14628-1.68924-5.77113-5.18541-5.77113-4.11132,0-7.4152,4.2544-7.4152,9.95211A14.79461,14.79461,0,0,0,42.11185,48.729S37.904,66.5571,37.16605,69.68107c-1.46873,6.21889-.22064,13.84009-.11483,14.60962a.51155.51155,0,0,0,.91381.22186c.37824-.495,5.27684-6.54187,6.94122-12.58353.472-1.71091,2.70431-10.56916,2.70431-10.56916,1.336,2.55008,5.24054,4.79157,9.39262,4.79157,12.36032,0,20.74594-11.26648,20.74594-26.34886C77.74912,28.39678,68.0892,17.77505,53.40791,17.77505Z"/></svg>