<svg id="Layer_1" data-name="Layer 1" xmlns="http://www.w3.org/2000/svg" viewBox="0 0 100 100"><title>twitter_icon</title><path d="M84.84133,31.40377a27.08125,27.08125,0,0,1-7.80568,2.1397,13.62025,13.62025,0,0,0,5.97592-7.51887,27.20351,27.20351,0,0,1-8.6298,3.29917A13.60218,13.60218,0,0,0,51.2245,41.71824,38.5773,38.5773,0,0,1,23.2126,27.51956a13.60572,13.60572,0,0,0,4.20586,18.144A13.541,13.541,0,0,1,21.26317,43.963c-.00121.05648-.00121.11362-.00121.17211A13.59967,13.59967,0,0,0,32.164,57.46045a13.616,13.616,0,0,1-6.13821.23249,13.60516,13.60516,0,0,0,12.6946,9.43792A27.26433,27.26433,0,0,1,21.8423,72.94865a27.83232,27.83232,0,0,1-3.24136-.18974,38.46457,38.46457,0,0,0,20.83241,6.10594c24.99765,0,38.6659-20.70842,38.6659-38.66723,0-.58827-.01183-1.17587-.038-1.75823A27.58943,27.58943,0,0,0,84.84133,31.40377Z"/></svg>