<svg xmlns="http://www.w3.org/2000/svg" viewBox="-5446.616 8.164 14.792 11.086">
  <defs>
    <style>
      .cls-1 {
        fill: #fff;
      }

      .cls-2 {
        fill: none;
        stroke: #fff;
        stroke-miterlimit: 10;
        stroke-width: 0.5px;
      }
    </style>
  </defs>
  <g id="Group_3869" data-name="Group 3869" transform="translate(-5447.595 7.185)">
    <g id="Group_3851" data-name="Group 3851" transform="translate(9.374 2.677)">
      <path id="Path_1128" data-name="Path 1128" class="cls-1" d="M175.194,31.4a.26.26,0,0,0,.246.172.221.221,0,0,0,.093-.019.263.263,0,0,0,.158-.339l-.037-.1a.264.264,0,0,0-.5.181Z" transform="translate(-175.14 -30.94)"/>
    </g>
    <g id="Group_3852" data-name="Group 3852" transform="translate(10.219 4.943)">
      <path id="Path_1129" data-name="Path 1129" class="cls-1" d="M193.357,80.1l.037.1a.26.26,0,0,0,.246.172.221.221,0,0,0,.093-.019.263.263,0,0,0,.158-.339l-.037-.1a.263.263,0,0,0-.339-.158A.267.267,0,0,0,193.357,80.1Z" transform="translate(-193.34 -79.74)"/>
    </g>
    <g id="Group_3853" data-name="Group 3853" transform="translate(9.783 3.828)">
      <path id="Path_1130" data-name="Path 1130" class="cls-1" d="M183.956,56.1l.037.1a.26.26,0,0,0,.246.172.221.221,0,0,0,.093-.019.263.263,0,0,0,.158-.339l-.037-.1a.263.263,0,0,0-.339-.158A.27.27,0,0,0,183.956,56.1Z" transform="translate(-183.94 -55.74)"/>
    </g>
    <path id="Path_1131" data-name="Path 1131" class="cls-2" d="M59.9,102.54V100.9H71.4v1.64a1.333,1.333,0,0,0,0,2.61v1.64H59.9v-1.64a1.333,1.333,0,0,0,0-2.61Z" transform="translate(-55.878 -94.974)"/>
    <path id="Path_1132" data-name="Path 1132" class="cls-2" d="M4.017,10.543l-.678.237L2.772,9.242a1.345,1.345,0,0,0,.506-1.691A1.314,1.314,0,0,0,1.867,6.79L1.3,5.252,12.094,1.3l.567,1.537a1.333,1.333,0,0,0,.9,2.452l.246.618" transform="translate(0 0)"/>
  </g>
</svg>
