<svg id="Layer_1" data-name="Layer 1" xmlns="http://www.w3.org/2000/svg" viewBox="0 0 684.89 118.97216"><defs><style>.cls-1{fill:#000001;}</style></defs><title>NWS_logo</title><path class="cls-1" d="M599.33089,83.74833s-1.207,19.16454,15.30728,19.16454a13.14659,13.14659,0,0,0,10.12566-5.18454l1.56636,4.2195h7.713V57.83h-18.201v10.969h5.18455V84.83219s.242,6.50892-4.33977,6.50892c-4.58032,0-4.3383-6.50892-4.3383-6.50892V31.55227s-.242-6.50893,4.3383-6.50893c4.58174,0,4.33977,6.50893,4.33977,6.50893v13.6221h13.01641V31.55227s.12174-19.166-17.35618-19.166c-17.47645,0-17.35617,19.166-17.35617,19.166ZM547.74342,13.34987H534.72555v88.598h13.01787ZM462.88677,26.37063c9.1606,0,9.76341,2.28943,9.64313,31.21736.12028,29.0511-.48253,31.342-9.64313,31.342Zm-2.77339-13.01931H449.8689v88.59651h10.24448c24.10854-.12026,25.91834-9.64313,25.91834-44.23667,0-34.71526-1.8098-44.23958-25.91834-44.35984m-15.06385-.00145H415.27536v88.598h29.77417V88.56772H428.29324V64.21719h12.05427v-14.222H428.29324V26.73h16.75629ZM392.61582,59.3978l-5.54533-46.04648h-9.40114l-5.5439,46.04648L371.76177,62.29h-.9636l-.242-2.89221-5.18308-46.04648H353.32027l11.93256,88.59651h10.12709l6.02641-41.9458.723-5.186h.48107l.72305,5.186,6.02645,41.9458H399.487l11.93258-88.59651H399.36532L394.18219,59.3978l-.242,2.89221h-.96215Zm122.341-1.80981c.12028,29.0511-.48253,31.342-9.64167,31.342V26.37063c9.15914,0,9.762,2.28943,9.64167,31.21736m13.5004.12317c0-34.71526-1.80838-44.23958-25.91547-44.35984H492.29577v88.59651H502.5417c24.10709-.12026,25.91547-9.64313,25.91547-44.23667m38.08852-44.36129H554.97395v88.598h11.93253V51.6833h.72309l1.08529,4.09778,12.657,46.16675h11.5732v-88.598H581.00823v50.266h-.72016l-1.08676-4.09778Zm76.21475,67.2005c-4.6397,0-5.06134,4.64986-5.06134,6.5669,0,5.26133,3.16315,9.42287,7.54784,9.42287,6.20033,0,8.7723-8.36076,15.98253-8.36076,3.54136,0,5.60764,1.99818,5.60764,4.731a3.78576,3.78576,0,0,1-4.04561,3.91522c-2.91106,0-3.96593-2.56909-3.96593-4.773-2.19089.12317-2.78352,2.16192-2.78352,3.59064,0,2.85454,2.3633,5.996,6.91465,5.996,5.14541,0,7.25516-3.9978,7.25516-8.64621,0-5.91484-3.45877-11.46308-10.543-11.46308-9.10841,0-9.95174,9.17655-16.1506,9.17655a3.47642,3.47642,0,0,1-3.837-3.75147c0-2.24451,1.349-3.01828,2.82558-3.01828a4.45923,4.45923,0,0,1,3.62684,1.83444,2.3015,2.3015,0,0,0,.88392-1.87647c0-2.04019-1.81126-3.3443-4.25721-3.3443m12.39769-30.34071c.84332,0,1.55916-.24488,1.76925-1.10269,4.97587.65205,8.77084,2.73282,8.77084,4.73245,0,1.55043-.63323,2.07932-3.41242,2.07932-4.134,0-11.85285-2.52852-11.85285-5.42508,0-1.05922.6767-1.46929,2.4459-1.55043a2.332,2.332,0,0,0,2.27928,1.26643M666.0373,34.956c2.359-.48976,3.53991-2.243,3.53991-4.89618,0-8.32019-11.7645-11.62538-18.50962-11.62538-1.8576,0-3.66885.61149-3.66885,2.57054a2.20984,2.20984,0,0,0,2.2749,2.53c.9303,0,2.1518-.4912,2.1518-1.46784,0-.32747-.12753-1.18528-.4231-1.307,4.63971,0,14.08574,3.05885,14.08574,7.05666a1.23893,1.23893,0,0,1-1.39249,1.38669,8.43207,8.43207,0,0,1-1.51564-.20286l-14.33789-2.93568v5.87137l13.5337,2.77339c2.10974.61293,3.71232,1.6736,3.71232,3.26461,0,.93751-.88533,1.223-1.85472,1.223a4.65769,4.65769,0,0,1-1.05341-.12316l-14.33789-2.93569v5.87427l6.11042,1.25194a6.88844,6.88844,0,0,1,.342,1.88661.91354.91354,0,0,1-.08552.44773c-4.42816,0-6.74657,1.71418-6.74657,5.21932,0,8.40568,10.11986,11.18052,14.9697,11.18052a9.90016,9.90016,0,0,0,1.91411-.18982,2.38826,2.38826,0,0,1,.74188,1.775c0,1.223-.71725,1.63158-1.77212,1.63158-2.36042,0-7.46236-1.9576-10.87766-1.9576-3.37475,0-4.76578,1.917-4.76578,4.52814a5.98359,5.98359,0,0,0,2.36043,4.773l-10.627-2.20394.84478,6.03656,28.67436,5.91484V76.4323l-13.70611-2.814c-1.13748-.24343-3.70945-1.50986-3.70945-3.09942,0-1.02155.7578-1.50986,2.15029-1.50986,2.698,0,7.88693,1.83589,10.7531,1.83589,2.40531,0,4.76432-1.26353,4.76432-4.8136a6.0452,6.0452,0,0,0-2.65171-5.03529c1.79822-1.12153,2.5691-3.10232,2.5691-5.5265,0-5.01646-4.89185-9.09541-12.69329-9.74891a16.72461,16.72461,0,0,0-.48974-2.05469l5.46419,1.12008a14.28347,14.28347,0,0,0,2.743.326c3.54278,0,5.05847-1.91848,5.05847-4.3644,0-1.633-.5057-3.79495-3.53991-5.79168"/><path class="cls-1" d="M33.15014,52.69021c-4.35862-.965-9.44895-3.25591-9.44895-5.55114,0-.8723.73463-1.14616,1.88225-1.14616,3.85144,0,7.38268,3.11826,7.5667,6.6973M42.06441,58.821c1.95906-1.19543,2.82556-3.32546,2.82556-6.0409,0-3.66888-1.55912-6.96971-6.78859-7.9333a9.35654,9.35654,0,0,1,2.43145,5.41058c0,1.6055-.91724,2.84585-3.80654,2.84585-.41153,0-.91724-.04927-1.37511-.09274-.32022-5.50477-4.35571-10.5502-9.67791-10.5502-2.29087,0-4.40207.965-4.40207,5.04543,0,9.4026,11.053,12.3832,16.32738,12.3832a11.18485,11.18485,0,0,0,2.04456-.19127,2.73084,2.73084,0,0,1,.79839,1.98514c0,1.37655-.77955,1.833-1.92718,1.833-2.56764,0-8.11733-2.201-11.83111-2.201-3.6689,0-5.18165,2.15612-5.18165,5.0918a6.9754,6.9754,0,0,0,2.66037,5.4584C13.7045,69.7537,12.37431,69.11178,10.35584,68.01054a10.77759,10.77759,0,0,1,1.10124,5.54969c0,4.67884-1.19253,10.272-1.19253,12.3832,0,11.32832,5.82355,16.14336,11.92387,16.14336,3.30083,0,4.44843-1.7417,4.44843-4.90778a6.37717,6.37717,0,0,1-3.11825.64336c-7.2001,0-9.1722-4.08475-9.35477-9.22L44.61611,95.1591V88.55743L14.57678,82.09052c.27388-2.10975.64047-4.17313.77812-6.05249l29.26121,6.28288V75.7178c-6.10176-1.10269-11.00809-2.01991-14.99719-2.798-2.15467-.68973-3.94565-1.8837-3.94565-3.48775,0-1.0998.82449-1.649,2.33869-1.649,2.93715,0,8.57811,2.06193,11.69492,2.06193,2.61547,0,5.18309-1.42147,5.18309-5.412a6.85542,6.85542,0,0,0-2.82556-5.612m35.35138,42.666H88.99625V13.34683H77.055V63.35344h-.72307l-1.08675-4.07895L62.57943,13.34683h-11.579V101.4869H62.94168V51.48029h.72305L64.75,55.55779ZM117.1026,69.83049h-8.92733l3.73989-27.82234.36225-2.28074h.72305l.36225,2.28074Zm16.88669,31.65641L120.60048,13.34683H104.67737L91.28711,101.4869h12.66575L106.36691,83.499h12.544l2.41261,17.98794Zm20.38606-74.82951H166.6803V13.34683h-37.635V26.65739h12.30349v74.831h13.02656Zm13.63224,74.82951h13.028V13.34538h-13.028Zm39.80415-70.03331v51.9251s.242,6.477-4.33976,6.477c-4.58609,0-4.34266-6.477-4.34266-6.477V31.45359s-.24343-6.47415,4.34266-6.47415c4.58176,0,4.33976,6.47415,4.33976,6.47415m13.028,51.9251V31.45359s.12174-19.06746-17.36776-19.06746c-17.49238,0-17.37211,19.06746-17.37211,19.06746v51.9251s-.12027,19.06745,17.37211,19.06745c17.4895,0,17.36776-19.06745,17.36776-19.06745m31.4811,18.10821h11.58044V13.34683H251.96V63.35344h-.723l-1.08676-4.07895L237.48592,13.34683H225.90547V101.4869h11.94127V51.48029h.7245l1.08529,4.0775Zm39.68533-31.65641h-8.92585l3.73987-27.82234.36225-2.28074h.72307l.36225,2.28074Zm4.22241,31.65641h12.66577L295.50553,13.34683H279.58242L266.1936,101.4869h12.66575L281.272,83.499h12.54547Zm14.95809,0h30.277v-11.992H324.21467V13.34683h-13.028Z"/></svg>