<svg xmlns="http://www.w3.org/2000/svg" xmlns:xlink="http://www.w3.org/1999/xlink" viewBox="0 0 179 110.08"><defs><style>.cls-1{fill:none;}.cls-2{fill:#1d1d1b;}.cls-3{clip-path:url(#clip-path);}</style><clipPath id="clip-path"><rect class="cls-1" width="179" height="98"/></clipPath></defs><g id="Warstwa_2" data-name="Warstwa 2"><g id="Warstwa_1-2" data-name="Warstwa 1"><path class="cls-2" d="M1.22.66H21v4H13.73V18.45H8.49V4.66H1.22ZM.56,0V5.32H7.82V19.11h6.57V5.32h7.26V0Z"/><path class="cls-2" d="M40.7,7.33V.66H46V18.45H40.7v-7.2H30.24v7.2H25V.66h5.26V7.33ZM40,0V6.67H30.9V0H24.31V19.11H30.9V11.92H40v7.19h6.59V0Z"/><path class="cls-2" d="M51,.66H68V4.24H56.2V7.58H67.63V11.3H56.2v3.52h12v3.63H51ZM50.32,0V19.11H68.81V14.16h-12V12H68.29V6.92H56.86v-2h11.8V0Z"/><polygon class="cls-2" points="6.95 43.62 1.18 43.62 1.18 25.18 7.23 25.18 17.59 36.23 17.59 25.18 23.34 25.18 23.34 43.62 17.61 43.62 6.95 32.37 6.95 43.62"/><path class="cls-2" d="M32.94,40.42l-1.41,3.2H25.6L34,25.17h7.81l8.65,18.45H44.12l-1.44-3.2Zm1.81-4.06h6.12l-3.1-6.9Z"/><polygon class="cls-2" points="49.55 29.84 49.55 25.18 69.98 25.18 69.98 29.84 62.72 29.84 62.72 43.62 56.81 43.62 56.81 29.84 49.55 29.84"/><rect class="cls-2" x="73.3" y="25.17" width="5.93" height="18.44"/><g class="cls-3"><path class="cls-2" d="M106.85,34v.74c0,3.87-2.23,9.2-11.48,9.2H94.25c-9.22,0-11.48-5.33-11.48-9.2V34c0-3.92,2.26-9.1,11.48-9.1h1.12c9.22,0,11.48,5.18,11.48,9.1m-12-4.49c-4.93,0-5.87,2.68-5.87,4.68v.33c0,2,1,4.76,5.87,4.76s5.85-2.76,5.85-4.76v-.33c0-2-.94-4.68-5.85-4.68"/><polygon class="cls-2" points="116.17 43.62 110.4 43.62 110.4 25.18 116.44 25.18 126.81 36.23 126.81 25.18 132.56 25.18 132.56 43.62 126.83 43.62 116.17 32.37 116.17 43.62"/><path class="cls-2" d="M142.16,40.42l-1.42,3.2h-5.92l8.38-18.45H151l8.65,18.45h-6.32l-1.44-3.2ZM144,36.36h6.12l-3.1-6.9Z"/><polygon class="cls-2" points="167.84 38.81 179 38.81 179 43.62 161.92 43.62 161.92 25.17 167.84 25.17 167.84 38.81"/><polygon class="cls-2" points="0 49.73 6.35 49.73 10.16 62.43 13.91 49.73 20.45 49.73 24.17 62.45 27.99 49.73 33.82 49.73 27.67 68.18 20.68 68.18 16.93 55.98 13.21 68.18 6.32 68.18 0 49.73"/><polygon class="cls-2" points="53.93 53.97 42.13 53.97 42.13 56.65 53.55 56.65 53.55 61.04 42.13 61.04 42.13 63.89 54.07 63.89 54.07 68.18 36.25 68.18 36.25 49.73 53.93 49.73 53.93 53.97"/><path class="cls-2" d="M68.16,49.73c9.87,0,12.07,4.69,12.07,8.66v.74c0,4.07-1.83,9.05-12,9.05H58V49.73Zm-.52,14c5.85,0,6.42-2.8,6.42-4.78v-.15c0-1.91-.6-4.66-6.42-4.66H63.92v9.59Z"/><path class="cls-2" d="M93.89,49.73c9.87,0,12.08,4.69,12.08,8.66v.74c0,4.07-1.84,9.05-12,9.05H83.73V49.73Zm-.52,14c5.85,0,6.42-2.8,6.42-4.78v-.15c0-1.91-.59-4.66-6.42-4.66H89.65v9.59Z"/><rect class="cls-2" x="109.47" y="49.73" width="5.93" height="18.45"/><polygon class="cls-2" points="125.53 68.18 119.75 68.18 119.75 49.73 125.8 49.73 136.17 60.79 136.17 49.73 141.92 49.73 141.92 68.18 136.19 68.18 125.53 56.92 125.53 68.18"/><path class="cls-2" d="M145.47,59.18v-.59c0-4,2.38-9.13,11.33-9.13h.84c8.83,0,11.11,3.85,11.11,6.67v.08h-6.18c-.2-.45-.89-2.19-5.33-2.19s-5.63,2.38-5.63,4.69V59c0,2.25,1.37,4.88,5.73,4.88,4.19,0,5.08-1.93,5.21-2.53h-5.16V58H169V68.18h-4.41a11.14,11.14,0,0,0-.75-2.45c-.52.59-2.55,2.72-7.11,2.72h-.42c-8.31,0-10.81-5.1-10.81-9.27"/><path class="cls-2" d="M12.05,94h-.67c-7,0-10.57-2.2-10.57-6.55v-.56h7l0,.3c0,.58.2,2.11,3.73,2.11h.15c3.74,0,3.74-1.12,3.74-1.6s0-1.3-3.3-1.38L9.66,86.2C3.93,86,1,84.06,1,80.37v-.23c0-4,3.17-5.86,10-5.86H12c6.91,0,10.12,1.89,10.12,5.94v.53H15.16l0-.28c-.08-.48-.26-1.61-3.57-1.61h-.22c-3.46,0-3.46.77-3.46,1.18s0,1.18,3.1,1.26l2.6.07c6.19.18,8.83,1.92,8.83,5.82v.29C22.4,91.9,19.11,94,12.05,94M1.47,87.52c.06,3.83,3.4,5.78,9.91,5.78h.67c8.68,0,9.68-3.32,9.68-5.82v-.29c0-2.56-1-4.94-8.18-5.15L11,82C8.36,81.89,7.21,81.3,7.21,80S8.4,78.2,11.33,78.2h.22c3.13,0,3.93,1,4.16,1.88h5.7C21.37,77.84,20.26,75,12,75H11c-8.26,0-9.32,2.77-9.32,5.19v.23c0,3.27,2.69,5,8,5.17l2.53.07c2.83.07,3.94.65,3.94,2,0,1.56-1.36,2.26-4.4,2.26H11.6c-2.62,0-4-.79-4.35-2.4Z"/><path class="cls-2" d="M47.64,93.64H41.05V86.45H31.92v7.19H25.33V74.53h6.59V81.2h9.13V74.53h6.59ZM41.71,93H47V75.19H41.71v6.67H31.26V75.19H26V93h5.27V85.79H41.71Z"/><path class="cls-2" d="M63.45,93.94H62.33c-11,0-11.81-7.3-11.81-9.53v-.75c0-2.21.85-9.43,11.81-9.43h1.12c2.77,0,11.81.68,11.81,9.43v.75c0,2.23-.85,9.53-11.81,9.53m-1.12-19c-10.06,0-11.15,6.13-11.15,8.76v.75c0,2.08.81,8.86,11.15,8.86h1.12c2.61,0,11.14-.63,11.14-8.86v-.75c0-2.63-1.08-8.76-11.14-8.76Zm.57,14.38c-5.6,0-6.21-3.56-6.21-5.09v-.33c0-1.87.81-5,6.21-5s6.18,3.14,6.18,5v.33c0,1.9-.8,5.09-6.18,5.09m0-9.77c-4.58,0-5.54,2.37-5.54,4.35v.33c0,1.65.72,4.42,5.54,4.42,4.56,0,5.52-2.4,5.52-4.42v-.33c0-2-1-4.35-5.52-4.35"/><path class="cls-2" d="M104.2,93.64H96.72L93.23,82.25,89.75,93.64H82.38L75.83,74.53h7.06L86.45,86.4,90,74.53h7l3.48,11.88L104,74.53h6.53Zm-7-.66h6.51l5.93-17.79h-5.12l-4.07,13.56-4-13.56h-6l-4,13.53L82.39,75.19H76.76L82.85,93h6.41l4-13Z"/><path class="cls-2" d="M.74,106.68l.44-.26a1.91,1.91,0,0,0,2,1.35c1.12,0,1.68-.58,1.68-1.34s-.71-1.12-1.73-1.44S1,104.31,1,103.14a1.85,1.85,0,0,1,2-1.8,2.25,2.25,0,0,1,2.16,1.41l-.43.23a1.77,1.77,0,0,0-1.73-1.15,1.33,1.33,0,0,0-1.51,1.29c0,.8.68,1,1.64,1.37,1.19.39,2.22.77,2.22,1.93s-.87,1.84-2.2,1.84a2.41,2.41,0,0,1-2.46-1.58"/><path class="cls-2" d="M10.51,103.36v4.79H10v-.91a1.81,1.81,0,0,1-1.72,1,1.77,1.77,0,0,1-1.86-1.92v-3h.49v3a1.33,1.33,0,0,0,1.41,1.46c.94,0,1.68-.61,1.68-1.91v-2.53Z"/><path class="cls-2" d="M17,105.76a2.47,2.47,0,0,1-2.48,2.5A2.29,2.29,0,0,1,12.43,107v3H12v-6.71h.47v1.11a2.29,2.29,0,0,1,2.07-1.22A2.47,2.47,0,0,1,17,105.76m-.48,0a2,2,0,1,0-2,2,2,2,0,0,0,2-2"/><path class="cls-2" d="M23.16,105.76a2.47,2.47,0,0,1-2.48,2.5A2.26,2.26,0,0,1,18.62,107v3h-.48v-6.71h.48v1.11a2.26,2.26,0,0,1,2.06-1.22,2.47,2.47,0,0,1,2.48,2.51m-.48,0a2,2,0,1,0-2,2,2,2,0,0,0,2-2"/><path class="cls-2" d="M24,105.76a2.52,2.52,0,1,1,2.52,2.5,2.49,2.49,0,0,1-2.52-2.5m4.55,0a2,2,0,1,0-2,2,2,2,0,0,0,2-2"/><path class="cls-2" d="M32.26,103.29v.46a1.56,1.56,0,0,0-1.6,1.74v2.66h-.48v-4.79h.48v.94a1.62,1.62,0,0,1,1.6-1"/><path class="cls-2" d="M34.43,103.83v3.11c0,.85.45.87,1.43.78v.43c-1.26.19-1.92-.11-1.92-1.21v-3.11h-1v-.47h1v-1.2l.49-.14v1.34h1.43v.47Z"/><path class="cls-2" d="M41.18,105.77c0,.08,0,.16,0,.23H36.83a2,2,0,0,0,2,1.8,1.85,1.85,0,0,0,1.66-.87l.42.25a2.36,2.36,0,0,1-2.09,1.08,2.51,2.51,0,1,1,2.33-2.49m-4.35-.23h3.85a1.87,1.87,0,0,0-1.87-1.83,1.93,1.93,0,0,0-2,1.83"/><path class="cls-2" d="M47,101.44v6.71h-.47V107a2.29,2.29,0,0,1-2.07,1.22,2.51,2.51,0,0,1,0-5,2.29,2.29,0,0,1,2.07,1.22v-3Zm-.47,4.32a2,2,0,1,0-2,2,2,2,0,0,0,2-2"/><path class="cls-2" d="M56.06,105.76a2.47,2.47,0,0,1-2.48,2.5A2.26,2.26,0,0,1,51.52,107v1.11H51v-6.71h.48v3a2.26,2.26,0,0,1,2.06-1.22,2.47,2.47,0,0,1,2.48,2.51m-.48,0a2,2,0,1,0-2,2,2,2,0,0,0,2-2"/><path class="cls-2" d="M61,103.36,59,108.59a2,2,0,0,1-1.9,1.48v-.45c.64.06,1.13-.42,1.43-1.12l.1-.26-2.2-4.88h.51l1.94,4.27,1.67-4.27Z"/><path class="cls-2" d="M77.7,106H78v3.5H77.7a3,3,0,0,0-.46-1.06,4.29,4.29,0,0,1-3.37,1.48,4.94,4.94,0,0,1-3.58-1.35,5,5,0,0,1-1.39-3.62,6.26,6.26,0,0,1,.63-2.78,4.36,4.36,0,0,1,1.77-1.93,5.25,5.25,0,0,1,2.53-.64,4.68,4.68,0,0,1,2,.47,4.43,4.43,0,0,1,1.34,1,3.53,3.53,0,0,0,.38-1.31h.34l.08,3.79h-.33a4.36,4.36,0,0,0-1.35-2.82,3.87,3.87,0,0,0-2.31-.8,3,3,0,0,0-2.53,1.26,6.09,6.09,0,0,0-.93,3.67,5.22,5.22,0,0,0,1,3.45,3.25,3.25,0,0,0,2.53,1.22,3.63,3.63,0,0,0,1.64-.38,3,3,0,0,0,1.35-1.35A4.18,4.18,0,0,0,77.7,106"/><path class="cls-2" d="M80.56,104.68a4.87,4.87,0,0,1,1.56-3.75A5.66,5.66,0,0,1,86,99.54a5.87,5.87,0,0,1,3.92,1.39,4.78,4.78,0,0,1,1.55,3.79A5.08,5.08,0,0,1,90,108.51a5.34,5.34,0,0,1-4,1.43,5.56,5.56,0,0,1-3.91-1.43,4.89,4.89,0,0,1-1.52-3.83m1.69,0a5.81,5.81,0,0,0,1,3.62,3.5,3.5,0,0,0,2.91,1.22,3.17,3.17,0,0,0,2.69-1.22,5.51,5.51,0,0,0,1-3.62,5.84,5.84,0,0,0-1-3.58A3.43,3.43,0,0,0,86,99.88a3.4,3.4,0,0,0-2.78,1.22,6,6,0,0,0-1,3.62"/><path class="cls-2" d="M102.32,110l-7.07-9.38v6.94a4.88,4.88,0,0,0,.09,1.14.82.82,0,0,0,.5.5,2.25,2.25,0,0,0,1.18.21v.38H93.27v-.33a2.47,2.47,0,0,0,1.1-.26.8.8,0,0,0,.46-.46,5,5,0,0,0,.09-1.18v-5.3a6.33,6.33,0,0,0-.13-1.56.85.85,0,0,0-.34-.51,3,3,0,0,0-1-.08v-.34h2.95l5.93,7.83v-6a3.41,3.41,0,0,0-.12-.92,1.08,1.08,0,0,0-.55-.42,2.6,2.6,0,0,0-1-.13v-.34h3.66v.34a2.25,2.25,0,0,0-1,.25.85.85,0,0,0-.46.47,2.16,2.16,0,0,0-.08.92V110h-.43Z"/><path class="cls-2" d="M113.35,99.71l.09,2.53h-.34a3,3,0,0,0-.46-1.35,1.47,1.47,0,0,0-.76-.67,3.55,3.55,0,0,0-1.35-.13H108.6v4.25h.92a1.85,1.85,0,0,0,1.22-.29,1.8,1.8,0,0,0,.3-1.22h.38v3.53H111a3.94,3.94,0,0,0-.13-1,.86.86,0,0,0-.38-.5,2.07,2.07,0,0,0-1-.13h-.92v2.48c0,.51,0,1.06,0,1.56a.87.87,0,0,0,.29.55,1.74,1.74,0,0,0,.93.17h.34v.29h-4.68v-.33h.3a1.66,1.66,0,0,0,.88-.17.85.85,0,0,0,.34-.51c0-.55.08-1.05.08-1.6v-4.92a10.19,10.19,0,0,0-.08-1.56.59.59,0,0,0-.3-.46,1.83,1.83,0,0,0-1-.13h-.17v-.34Z"/><path class="cls-2" d="M122.91,106.66h.38l-.21,3.11h-8.3v-.33H115a1.63,1.63,0,0,0,1-.21.83.83,0,0,0,.25-.51,9,9,0,0,0,.05-1.56v-4.92c0-.51,0-1-.05-1.52a.62.62,0,0,0-.29-.5,2.39,2.39,0,0,0-1-.17v-.34h7.16l.25,2.53H122a3.45,3.45,0,0,0-.59-1.48,1.68,1.68,0,0,0-.79-.54,8.75,8.75,0,0,0-1.52-.13h-1.39v4.21h1a3.83,3.83,0,0,0,1-.13.78.78,0,0,0,.38-.38,2.65,2.65,0,0,0,.09-1h.33v3.41h-.33a2.58,2.58,0,0,0-.13-1.13.86.86,0,0,0-.42-.38,3.13,3.13,0,0,0-.93-.09h-1.09V107a4.8,4.8,0,0,0,.25,2.11c.17.21.55.33,1.22.33h.76a4.32,4.32,0,0,0,1.3-.21,2.3,2.3,0,0,0,1-.84,4.92,4.92,0,0,0,.72-1.68"/><path class="cls-2" d="M125.22,102.15h-.33l0-2.4h9.72l0,2.4h-.34a3.39,3.39,0,0,0-.46-1.43,1.38,1.38,0,0,0-.64-.55,3.74,3.74,0,0,0-1.17-.08h-1.6v7.07c0,.51,0,1,0,1.56a.87.87,0,0,0,.29.55,1.84,1.84,0,0,0,.93.17h.5v.33h-5v-.33h.51a1.66,1.66,0,0,0,.88-.17.85.85,0,0,0,.34-.51c0-.55.08-1.05.08-1.6v-7.07h-1.47a7.1,7.1,0,0,0-1.3.08,1.14,1.14,0,0,0-.63.55,4.3,4.3,0,0,0-.43,1.43"/><path class="cls-2" d="M136.55,102.15h-.34l0-2.4H146l0,2.4h-.34a3.39,3.39,0,0,0-.46-1.43,1.41,1.41,0,0,0-.63-.55,3.83,3.83,0,0,0-1.18-.08h-1.56v7.07c0,.51,0,1,0,1.56a.73.73,0,0,0,.3.55,1.8,1.8,0,0,0,.92.17h.51v.33h-5v-.33h.51a1.66,1.66,0,0,0,.88-.17.9.9,0,0,0,.34-.51,10.72,10.72,0,0,0,.08-1.6v-7.07H138.9a7.1,7.1,0,0,0-1.3.08,1.17,1.17,0,0,0-.63.55,4.28,4.28,0,0,0-.42,1.43"/><path class="cls-2" d="M147.53,100.09v-.34h4.59v.34h-.21a1.88,1.88,0,0,0-1,.13.52.52,0,0,0-.29.46,10.46,10.46,0,0,0-.08,1.6v4.88c0,.51,0,1,0,1.56a.72.72,0,0,0,.29.55,1.84,1.84,0,0,0,.93.17h.29v.33h-4.59v-.33h.3a1.66,1.66,0,0,0,.88-.17.85.85,0,0,0,.34-.51c0-.55.08-1.05.08-1.6v-4.92a10.19,10.19,0,0,0-.08-1.56.61.61,0,0,0-.29-.46,2.1,2.1,0,0,0-1-.13Z"/></g></g></g></svg>