<svg id="Layer_1" data-name="Layer 1" xmlns="http://www.w3.org/2000/svg" viewBox="0 0 105.40796 103.663"><defs><style>.cls-1{fill:#94368b;}</style></defs><title>S&amp;amp;T_Logo_penrose</title><path class="cls-1" d="M92.47615,52.708,92.465,44.21078a8.968,8.968,0,0,0-4.52959-7.81092L40.54321,9.052c-4.50733-2.59187-9.10378-2.3109-14.90826.91348-.0062.0031-.0062.00372-1.13072.6814-1.94945,1.174-6.51436,3.92494-6.643,3.9992a8.96973,8.96973,0,0,0-4.51538,7.84311l.19865,54.92214c.01669,4.69237,2.03305,7.43712,8.63652,11.75258.30075.18506,7.38142,4.54817,7.67847,4.71837a9.27989,9.27989,0,0,0,9.37669-.03652C85.92341,66.5871,85.94755,66.57163,85.955,66.56668c6.55829-4.19974,6.536-10.01229,6.52116-13.85865M24.948,32.17165l.1937,53.60886c.00061.16587.00805.33048.01734.4914a9.51068,9.51068,0,0,0,.1968,1.47417l-1.64005-1.01c-6.77553-4.42934-7.28922-6.57192-7.29972-9.33523L16.21863,22.483a6.136,6.136,0,0,1,2.93784-5.26113l.06191-.03837c.02784-.01795.05508-.03589.08292-.052a6.39943,6.39943,0,0,1,1.054-.48645,6.08764,6.08764,0,0,1,5.12312.47221l46.8389,26.85209a.11709.11709,0,0,1,.06746.125c0,.0588-.0006.07674.0025.073a.35688.35688,0,0,1-.07736.05942l-8.6,5.00613L29.32906,29.53893a2.92,2.92,0,0,0-2.42106-.23581,2.45165,2.45165,0,0,0-.49325.224c-.07986.0495-.15348.10025-.22838.1541A3.01129,3.01129,0,0,0,24.948,32.17165m61.538,6.70807a6.34021,6.34021,0,0,1,3.09752,5.09464l.00309.06374c.0031.065.0062.13.0062.1962a5.52954,5.52954,0,0,1-.10089,1.05953,5.90946,5.90946,0,0,1-.58172,1.64374,7.22869,7.22869,0,0,1-1.40363,1.83808,8.06429,8.06429,0,0,1-1.54411,1.13751l-46.11112,26.81a.13872.13872,0,0,1-.15287,0,.13513.13513,0,0,1-.0749-.13059l-.03589-9.951,34.24775-19.928a3.0287,3.0287,0,0,0,1.50079-2.62406,2.99092,2.99092,0,0,0-1.51813-2.61168L26.90735,14.62507a9.23541,9.23541,0,0,0-2.00578-.85529l2.1494-1.30523c4.87555-2.70389,8.48176-2.97992,12.05828-.92337h-.0006ZM39.4868,38.66805,60.88589,50.925,39.5753,63.32621ZM27.84871,32.00949a.16257.16257,0,0,1,.05258.02229l8.70644,4.98757.14358,39.58375a3.02422,3.02422,0,0,0,4.54386,2.603l46.67553-27.138a11.0944,11.0944,0,0,0,1.62578-1.24891l.00684,1.74154c.013,3.51587.02844,7.89014-5.23947,11.61333L37.78918,91.36469a6.43564,6.43564,0,0,1-6.50258.02476,6.5459,6.5459,0,0,1-1.61037-1.29161,7.24994,7.24994,0,0,1-1.6493-3.98313c-.0068-.1145-.01239-.229-.01239-.34472l-.19371-53.60638c0-.13121.02663-.14668.02788-.15412"/></svg>