<svg xmlns="http://www.w3.org/2000/svg" viewBox="0 0 236.75 145.59"><defs><style>.cls-1{fill:#1d1d1b;}</style></defs><g id="Warstwa_2" data-name="Warstwa 2"><g id="Layer_1" data-name="Layer 1"><path class="cls-1" d="M19,25.27H10.35V7H.74V0h27.9V7H19Zm-7.8-.87h6.92V6.17h9.61V.88H1.62V6.17h9.61Z"/><path class="cls-1" d="M61.66,25.27H53V15.76H40.87v9.51H32.16V0h8.71V8.82H53V0h8.71Zm-7.84-.87h7V.88h-7V9.7H40V.88H33V24.4h7V14.89H53.82Z"/><path class="cls-1" d="M91,25.27H66.56V0H90.81V6.48H75.21V9.15H90.32v6.68H75.21v2.89H91ZM67.43,24.4h22.7V19.6H74.33V15H89.45V10H74.33V5.61H89.94V.88H67.43Z"/><path class="cls-1" d="M9.2,57.69H1.56V33.3h8L23.27,47.92V33.3h7.6V57.69H23.3L9.2,42.81Z"/><path class="cls-1" d="M43.57,53.46,41.7,57.69H33.86L44.94,33.3H55.27L66.72,57.69H58.35l-1.9-4.23ZM46,48.09h8.1L50,39Z"/><path class="cls-1" d="M65.54,39.46V33.3h27v6.16H83V57.69h-7.8V39.46Z"/><path class="cls-1" d="M97,57.69V33.3h7.84V57.69Z"/><path class="cls-1" d="M141.32,44.94v1c0,5.12-2.95,12.17-15.18,12.17h-1.48c-12.2,0-15.18-7.05-15.18-12.17v-1c0-5.18,3-12,15.18-12h1.48C138.34,32.9,141.32,39.76,141.32,44.94ZM125.42,39c-6.53,0-7.78,3.54-7.78,6.2v.43c0,2.65,1.38,6.29,7.78,6.29s7.73-3.64,7.73-6.29V45.2C133.15,42.54,131.91,39,125.42,39Z"/><path class="cls-1" d="M153.65,57.69H146V33.3h8l13.71,14.62V33.3h7.61V57.69h-7.58l-14.1-14.88Z"/><path class="cls-1" d="M188,53.46l-1.87,4.23h-7.84L189.4,33.3h10.33l11.44,24.39h-8.36l-1.9-4.23Zm2.39-5.37h8.1L194.41,39Z"/><path class="cls-1" d="M222,51.33h14.76v6.36H214.16V33.3H222Z"/><path class="cls-1" d="M0,65.78H8.39l5,16.79,5-16.79h8.65L32,82.6,37,65.78h7.71l-8.14,24.4H27.35l-5-16.13L17.48,90.18H8.36Z"/><path class="cls-1" d="M71.32,71.39H55.71v3.54H70.83v5.8H55.71v3.78H71.52v5.67H47.94V65.78H71.32Z"/><path class="cls-1" d="M90.15,65.78c13,0,16,6.2,16,11.45v1c0,5.38-2.43,12-15.94,12H76.7V65.78Zm-.69,18.53C97.2,84.31,98,80.6,98,78v-.2c0-2.52-.79-6.16-8.49-6.16H84.54V84.31Z"/><path class="cls-1" d="M124.19,65.78c13.05,0,16,6.2,16,11.45v1c0,5.38-2.43,12-15.94,12H110.74V65.78Zm-.69,18.53c7.74,0,8.49-3.71,8.49-6.33v-.2c0-2.52-.79-6.16-8.49-6.16h-4.92V84.31Z"/><path class="cls-1" d="M144.78,90.18V65.78h7.84v24.4Z"/><path class="cls-1" d="M166,90.18h-7.64V65.78h8L180.1,80.41V65.78h7.61v24.4h-7.58L166,75.29Z"/><path class="cls-1" d="M192.4,78.27v-.78c0-5.28,3.15-12.07,15-12.07h1.12c11.67,0,14.69,5.08,14.69,8.82v.1H215c-.26-.59-1.18-2.89-7.05-2.89s-7.44,3.15-7.44,6.2v.4c0,3,1.8,6.46,7.57,6.46,5.55,0,6.73-2.56,6.89-3.35h-6.82V76.7h15.31V90.18h-5.83a15,15,0,0,0-1-3.25c-.69.79-3.37,3.61-9.41,3.61h-.56C195.71,90.54,192.4,83.78,192.4,78.27Z"/><path class="cls-1" d="M15.94,124.28h-.89c-9.28,0-14-2.92-14-8.67v-.73h9.3l0,.39c.08.76.27,2.79,4.95,2.79h.19c4.94,0,4.94-1.49,4.94-2.12s0-1.72-4.36-1.83L12.78,114c-7.58-.24-11.42-2.83-11.42-7.72V106c0-5.29,4.2-7.75,13.2-7.75h1.25c9.13,0,13.39,2.49,13.39,7.85v.7H20.06l-.06-.37c-.11-.63-.35-2.12-4.72-2.12H15c-4.58,0-4.58,1-4.58,1.56s0,1.55,4.1,1.66l3.44.1c8.18.23,11.67,2.53,11.67,7.68v.4C29.62,121.56,25.27,124.28,15.94,124.28ZM2,115.75c.08,5.08,4.49,7.65,13.1,7.65h.89c11.48,0,12.81-4.39,12.81-7.69v-.4c0-3.37-1.32-6.53-10.83-6.8l-3.44-.1c-3.42-.09-5-.88-5-2.54s1.58-2.44,5.46-2.44h.29c4.14,0,5.19,1.33,5.5,2.49h7.54c-.06-3-1.52-6.79-12.51-6.79H14.56C3.64,99.13,2.24,102.8,2.24,106v.3c0,4.32,3.55,6.62,10.56,6.84l3.35.1c3.75.09,5.21.85,5.21,2.7,0,2.07-1.79,3-5.82,3h-.19c-3.47,0-5.36-1-5.76-3.18Z"/><path class="cls-1" d="M63,123.85H54.29v-9.51H42.22v9.51H33.5V98.58h8.72v8.82H54.29V98.58H63ZM55.17,123h7V99.46h-7v8.82H41.34V99.46h-7V123h7v-9.51H55.17Z"/><path class="cls-1" d="M83.92,124.25H82.44c-14.49,0-15.62-9.65-15.62-12.61v-1c0-2.93,1.13-12.47,15.62-12.47h1.48c3.66,0,15.62.89,15.62,12.47v1C99.54,114.6,98.41,124.25,83.92,124.25ZM82.44,99.06c-13.31,0-14.74,8.11-14.74,11.6v1c0,2.75,1.06,11.73,14.74,11.73h1.48c3.46,0,14.74-.85,14.74-11.73v-1c0-3.49-1.44-11.6-14.74-11.6Zm.76,19c-7.41,0-8.21-4.71-8.21-6.73v-.43c0-2.48,1.06-6.64,8.21-6.64s8.17,4.16,8.17,6.64v.43C91.37,113.86,90.31,118.08,83.2,118.08Zm0-12.92c-6.07,0-7.34,3.13-7.34,5.76v.43c0,2.18,1,5.85,7.34,5.85,6,0,7.3-3.18,7.3-5.85v-.43C90.5,108.29,89.23,105.16,83.2,105.16Z"/><path class="cls-1" d="M137.82,123.85h-9.89l-4.63-15.07-4.59,15.07H109l-8.66-25.27h9.34l4.72,15.69L119,98.58h9.32l4.59,15.71,4.72-15.71h8.64Zm-9.24-.87h8.6L145,99.46h-6.77l-5.38,17.92-5.24-17.92h-8l-5.28,17.88L109,99.46h-7.45L109.58,123h8.48l5.24-17.2Z"/><path class="cls-1" d="M1,141.09l.59-.34a2.51,2.51,0,0,0,2.66,1.79c1.48,0,2.23-.76,2.23-1.78s-.94-1.47-2.29-1.9-2.82-.9-2.82-2.45A2.45,2.45,0,0,1,4,134a3,3,0,0,1,2.85,1.87l-.57.31A2.32,2.32,0,0,0,4,134.68a1.78,1.78,0,0,0-2,1.71c0,1.06.91,1.39,2.17,1.81,1.58.52,2.94,1,2.94,2.55S6,143.19,4.23,143.19A3.19,3.19,0,0,1,1,141.09Z"/><path class="cls-1" d="M13.9,136.71v6.34h-.63v-1.21A2.39,2.39,0,0,1,11,143.19a2.34,2.34,0,0,1-2.46-2.54v-3.94h.64v3.94a1.76,1.76,0,0,0,1.87,1.93c1.24,0,2.22-.81,2.22-2.53v-3.34Z"/><path class="cls-1" d="M22.46,139.88a3.27,3.27,0,0,1-3.29,3.31,3,3,0,0,1-2.72-1.61v4h-.64v-8.87h.64v1.47a3,3,0,0,1,2.72-1.61A3.27,3.27,0,0,1,22.46,139.88Zm-.64,0a2.69,2.69,0,1,0-2.68,2.7A2.67,2.67,0,0,0,21.82,139.88Z"/><path class="cls-1" d="M30.63,139.88a3.27,3.27,0,0,1-3.28,3.31,3,3,0,0,1-2.73-1.61v4H24v-8.87h.63v1.47a3,3,0,0,1,2.73-1.61A3.26,3.26,0,0,1,30.63,139.88Zm-.63,0a2.69,2.69,0,1,0-2.69,2.7A2.67,2.67,0,0,0,30,139.88Z"/><path class="cls-1" d="M31.75,139.88a3.33,3.33,0,1,1,3.33,3.31A3.28,3.28,0,0,1,31.75,139.88Zm6,0a2.69,2.69,0,1,0-2.68,2.7A2.66,2.66,0,0,0,37.76,139.88Z"/><path class="cls-1" d="M42.67,136.62v.61a2,2,0,0,0-2.11,2.29v3.53h-.64v-6.34h.64V138A2.13,2.13,0,0,1,42.67,136.62Z"/><path class="cls-1" d="M45.54,137.33v4.12c0,1.11.59,1.14,1.89,1v.57c-1.66.25-2.54-.16-2.54-1.6v-4.12H43.5v-.62h1.39v-1.59l.65-.19v1.78h1.89v.62Z"/><path class="cls-1" d="M54.46,139.9c0,.1,0,.2,0,.31H48.71a2.58,2.58,0,0,0,2.68,2.37,2.41,2.41,0,0,0,2.2-1.16l.56.33a3.12,3.12,0,0,1-2.77,1.44,3.31,3.31,0,0,1-.05-6.62A3.17,3.17,0,0,1,54.46,139.9Zm-5.75-.32H53.8a2.46,2.46,0,0,0-2.47-2.4A2.55,2.55,0,0,0,48.71,139.58Z"/><path class="cls-1" d="M62.17,134.17v8.88h-.63v-1.47a3,3,0,0,1-2.73,1.61,3.31,3.31,0,0,1,0-6.62,3,3,0,0,1,2.73,1.61v-4Zm-.63,5.71a2.69,2.69,0,1,0-2.69,2.7A2.67,2.67,0,0,0,61.54,139.88Z"/><path class="cls-1" d="M74.15,139.88a3.27,3.27,0,0,1-3.29,3.31,3,3,0,0,1-2.72-1.61v1.47H67.5v-8.88h.64v4a3,3,0,0,1,2.72-1.61A3.27,3.27,0,0,1,74.15,139.88Zm-.63,0a2.69,2.69,0,1,0-2.69,2.7A2.67,2.67,0,0,0,73.52,139.88Z"/><path class="cls-1" d="M80.7,136.71,78,143.63a2.64,2.64,0,0,1-2.51,2V145c.85.07,1.5-.56,1.89-1.49l.14-.34-2.91-6.45h.68l2.56,5.64L80,136.71Z"/><path class="cls-1" d="M102.77,140.18h.44v4.62h-.44a3.9,3.9,0,0,0-.62-1.39,5.64,5.64,0,0,1-4.45,2A6.54,6.54,0,0,1,93,143.57a6.62,6.62,0,0,1-1.84-4.78,8.24,8.24,0,0,1,.84-3.68,5.79,5.79,0,0,1,2.33-2.56,6.93,6.93,0,0,1,3.34-.84,6.31,6.31,0,0,1,2.68.62,6,6,0,0,1,1.78,1.33,4.73,4.73,0,0,0,.5-1.72h.45l.11,5h-.45a5.76,5.76,0,0,0-1.78-3.73,5.09,5.09,0,0,0-3.06-1.06,4,4,0,0,0-3.34,1.67,7.94,7.94,0,0,0-1.23,4.84,6.88,6.88,0,0,0,1.34,4.57A4.31,4.31,0,0,0,98,144.85a4.71,4.71,0,0,0,2.17-.5,3.93,3.93,0,0,0,1.78-1.78A5.63,5.63,0,0,0,102.77,140.18Z"/><path class="cls-1" d="M106.55,138.45a6.42,6.42,0,0,1,2.06-4.95,7.4,7.4,0,0,1,5.13-1.84,7.6,7.6,0,0,1,5.17,1.84,6.33,6.33,0,0,1,2.06,5,6.77,6.77,0,0,1-2,5,7.06,7.06,0,0,1-5.23,1.89,7.34,7.34,0,0,1-5.18-1.89A6.51,6.51,0,0,1,106.55,138.45Zm2.23.06a7.73,7.73,0,0,0,1.28,4.79,4.64,4.64,0,0,0,3.84,1.61,4.2,4.2,0,0,0,3.57-1.61,7.36,7.36,0,0,0,1.28-4.79,7.79,7.79,0,0,0-1.28-4.74,4.59,4.59,0,0,0-3.73-1.67,4.49,4.49,0,0,0-3.68,1.62,7.94,7.94,0,0,0-1.28,4.79Z"/><path class="cls-1" d="M135.34,145.47,126,133.05v9.19a6.89,6.89,0,0,0,.11,1.5,1.16,1.16,0,0,0,.67.67,3.2,3.2,0,0,0,1.56.28v.5h-4.95v-.45a3.24,3.24,0,0,0,1.44-.33,1.12,1.12,0,0,0,.62-.61,7.22,7.22,0,0,0,.11-1.56v-7a8.44,8.44,0,0,0-.17-2.06,1.1,1.1,0,0,0-.44-.67,4.05,4.05,0,0,0-1.4-.11v-.44h3.9l7.85,10.35v-8a4,4,0,0,0-.17-1.22,1.37,1.37,0,0,0-.72-.56,3.68,3.68,0,0,0-1.28-.17v-.44H138v.44a2.86,2.86,0,0,0-1.33.34,1.08,1.08,0,0,0-.61.61,2.91,2.91,0,0,0-.12,1.22v11h-.55Z"/><path class="cls-1" d="M149.92,131.88l.12,3.34h-.45a4.11,4.11,0,0,0-.61-1.78,2,2,0,0,0-1-.89,4.84,4.84,0,0,0-1.79-.17h-2.56V138h1.23a2.47,2.47,0,0,0,1.61-.39,2.37,2.37,0,0,0,.39-1.62h.5v4.68h-.5a5.13,5.13,0,0,0-.17-1.34,1.15,1.15,0,0,0-.5-.67,2.78,2.78,0,0,0-1.33-.16h-1.23v3.28c0,.67,0,1.39.06,2.06a1.17,1.17,0,0,0,.39.73,2.42,2.42,0,0,0,1.22.22h.45v.39h-6.18v-.45H140a2.05,2.05,0,0,0,1.17-.22,1.1,1.1,0,0,0,.44-.67c.06-.72.11-1.39.11-2.11v-6.52a12.93,12.93,0,0,0-.11-2.06.76.76,0,0,0-.39-.61,2.5,2.5,0,0,0-1.28-.17h-.22v-.44Z"/><path class="cls-1" d="M162.56,141.07h.5l-.28,4.12h-11v-.45h.28a2,2,0,0,0,1.28-.28,1.1,1.1,0,0,0,.33-.66,12.93,12.93,0,0,0,.06-2.06v-6.52c0-.67,0-1.33-.06-2a.86.86,0,0,0-.39-.67,3.2,3.2,0,0,0-1.28-.22v-.45h9.46l.34,3.34h-.45a4.66,4.66,0,0,0-.78-1.95,2.21,2.21,0,0,0-1.05-.72,12.39,12.39,0,0,0-2-.17h-1.84V138h1.4a5.51,5.51,0,0,0,1.33-.17,1.06,1.06,0,0,0,.5-.5,3.54,3.54,0,0,0,.11-1.33h.45v4.51h-.45a3.54,3.54,0,0,0-.16-1.51,1.24,1.24,0,0,0-.56-.5,4.4,4.4,0,0,0-1.22-.11h-1.45v3.12a6.37,6.37,0,0,0,.33,2.78c.23.28.73.45,1.62.45h1a5.86,5.86,0,0,0,1.73-.28,3.08,3.08,0,0,0,1.28-1.11A6.55,6.55,0,0,0,162.56,141.07Z"/><path class="cls-1" d="M165.62,135.11h-.44l0-3.17H178.1l.05,3.17h-.44a4.4,4.4,0,0,0-.62-1.89,1.74,1.74,0,0,0-.83-.73,5,5,0,0,0-1.56-.11h-2.12v9.36c0,.66,0,1.39.06,2.06a1.22,1.22,0,0,0,.39.72,2.22,2.22,0,0,0,1.22.22h.67v.45H168.3v-.45H169a2,2,0,0,0,1.17-.22,1.11,1.11,0,0,0,.45-.67c.06-.72.11-1.39.11-2.11v-9.36h-1.95a9,9,0,0,0-1.72.11,1.54,1.54,0,0,0-.84.73A5.72,5.72,0,0,0,165.62,135.11Z"/><path class="cls-1" d="M180.6,135.11h-.44l.05-3.17h12.86l.06,3.17h-.45a4.39,4.39,0,0,0-.61-1.89,1.79,1.79,0,0,0-.83-.73,5,5,0,0,0-1.56-.11h-2.06v9.36c0,.66,0,1.39,0,2.06a1,1,0,0,0,.39.72,2.24,2.24,0,0,0,1.23.22H190v.45h-6.62v-.45H184a2.05,2.05,0,0,0,1.17-.22,1.1,1.1,0,0,0,.44-.67,13.57,13.57,0,0,0,.11-2.11v-9.36h-2a9.14,9.14,0,0,0-1.73.11,1.52,1.52,0,0,0-.83.73A5.72,5.72,0,0,0,180.6,135.11Z"/><path class="cls-1" d="M195.13,132.38v-.44h6.07v.44h-.28a2.52,2.52,0,0,0-1.28.17.68.68,0,0,0-.39.61,13.31,13.31,0,0,0-.11,2.12v6.46c0,.66,0,1.39.06,2.06a.94.94,0,0,0,.39.72,2.22,2.22,0,0,0,1.22.22h.39v.45h-6.07v-.45h.39a2,2,0,0,0,1.17-.22,1.15,1.15,0,0,0,.45-.67c.05-.72.11-1.39.11-2.11v-6.52a12.93,12.93,0,0,0-.11-2.06.81.81,0,0,0-.39-.61,2.83,2.83,0,0,0-1.34-.17Z"/></g></g></svg>